<?xml version="1.0" encoding="utf-8"?>
<!-- Generator: Adobe Illustrator 19.2.0, SVG Export Plug-In . SVG Version: 6.00 Build 0)  -->
<svg version="1.1" id="Layer_1" xmlns="http://www.w3.org/2000/svg" xmlns:xlink="http://www.w3.org/1999/xlink" x="0px" y="0px"
	 viewBox="0 0 105.8 105.8" style="enable-background:new 0 0 105.8 105.8;" xml:space="preserve">
<style type="text/css">
	.st0{fill:#3FA9F5;}
	.st1{fill:#FF931E;}
	.st2{fill:#FF7BAC;}
	.st3{fill:#EBBA84;}
</style>
<g>
	<g>
		<g>
			<path class="st0" d="M59.7,105.8H54C23.2,105.8,0,83,0,52.9C0,23.7,23.7,0,52.9,0s52.9,23.7,52.9,52.9c0,9.9-2.7,19.5-7.9,27.9
				c-0.3,0.5-0.9,0.6-1.4,0.3c-0.5-0.3-0.6-0.9-0.3-1.4c5-8,7.6-17.3,7.6-26.8C103.8,24.8,80.9,2,52.9,2C24.8,2,2,24.8,2,52.9
				c0,14,5.2,26.9,14.6,36.2c9.5,9.4,22.8,14.6,37.3,14.6h5.7c0.6,0,1,0.4,1,1S60.2,105.8,59.7,105.8z"/>
		</g>
		<g>
			<path class="st1" d="M72.1,98.6H54C27.3,98.6,7.2,79,7.2,52.9C7.3,27.7,27.8,7.2,53,7.2s45.7,20.5,45.7,45.7
				c0,10.1-3.5,19.8-10,27.4c-0.4,0.4-1,0.5-1.4,0.1s-0.5-1-0.1-1.4c6.1-7.2,9.5-16.5,9.5-26.1C96.7,28.8,77.1,9.2,53,9.2
				S9.3,28.8,9.3,52.9c0,24.9,19.2,43.7,44.8,43.7h18c0.6,0,1,0.4,1,1S72.6,98.6,72.1,98.6z"/>
		</g>
		<g>
			<path class="st2" d="M83.5,91.2H54.2c-22.5,0-39.4-16.5-39.4-38.3c0-21.1,17.2-38.3,38.3-38.3s38.3,17.2,38.3,38.3
				c0,10.2-4.3,19.9-11.9,26.6c-0.4,0.4-1,0.3-1.4-0.1s-0.3-1,0.1-1.4c7.1-6.3,11.2-15.5,11.2-25.1c0-20-16.3-36.3-36.3-36.3
				S16.8,32.9,16.8,52.9c0,20.7,16.1,36.3,37.4,36.3h29.3c0.6,0,1,0.4,1,1S84,91.2,83.5,91.2z"/>
		</g>
	</g>
	<g>
		<path class="st3" d="M53.4,77.9c-13.6,0-24-9.8-24-24.2c0-15.9,12.4-25.2,25.3-25.2c12.1,0,19.1,7.9,19.1,15.8
			c0,5.5-3.5,10-9.2,10c-3.6,0-6.4-1.8-7.6-4.8c-0.1-0.3-0.1-0.4-0.1-0.6c0-0.4,0.2-0.8,0.6-1l12-6.6c-1.6-5-6.1-9.2-13.3-9.2
			c-10.5,0-15.5,9.2-15.4,19c0.1,11.7,7,17.7,17.8,18c3.2,0.1,7.9-0.2,11.2-1.7c1.2-0.5,1.7,0.3,1,1.5
			C67.2,74.8,61.1,77.9,53.4,77.9z"/>
	</g>
</g>
</svg>
