<?xml version="1.0" encoding="utf-8"?>
<!-- Generator: Adobe Illustrator 19.2.0, SVG Export Plug-In . SVG Version: 6.00 Build 0)  -->
<svg version="1.1" id="Layer_1" xmlns="http://www.w3.org/2000/svg" xmlns:xlink="http://www.w3.org/1999/xlink" x="0px" y="0px"
	 viewBox="0 0 252 64.8" style="enable-background:new 0 0 252 64.8;" xml:space="preserve">
<g>
	<g>
		<path d="M26.9,12.1l4.3-2.1c-0.8-3-3.1-4.7-6-4.6C22.7,5.5,20.2,7,20,10c-0.2,2.7,1.4,5.3,5.5,9.2c3.7,3.5,6.4,7.4,7,12.4
			c0.9,8.4-4.6,16.4-15,16.9C8.8,49,1.8,43.7,1.1,36c-0.6-6.7,3.1-10.6,7.6-10.9c3.4-0.2,6,1.9,7,4.6c0.3,0.7,0,1.6-0.8,1.9l-8,3
			c0.3,5.3,3.7,9.1,9.3,8.8c6.2-0.3,7.9-4.4,7.9-7.4c0-3.2-2.5-6.5-5.6-9.8c-5-5.2-7.3-8.6-6.8-14.1c0.7-6.4,5.8-10.5,12.6-10.8
			c7.2-0.4,11.9,3.8,12.4,9.3c0.3,3.8-1.6,6.6-5.2,6.7c-2.7,0.1-4.9-1.6-5.5-3.4C25.7,13.2,26.1,12.5,26.9,12.1z"/>
		<path d="M61,30.3c0,8.2-6,16.5-14.7,16.5c-5.1,0.1-8.8-2.7-10.2-6.7c-0.8-2.3-0.2-4.1,1.9-5.7l1.3-1C38.5,32.2,38,30.8,38,29
			c0-6,5.7-10.5,12.2-10.5C56.5,18.6,61,23.8,61,30.3z M53.1,32.3c0-4.6-2.1-7.7-4.6-7.7c-1.5,0-2.8,1-2.8,2.9c0,1.1,0.2,2.4,1.1,4
			c1.1,1.9,1.7,2,1.7,2.8c0,1.1-1.5,1.6-3.3,1.7c-0.9,0.1-1.8-0.1-2.6-0.3c0.6,3.1,2.3,5.1,5,5.1C51.2,40.7,53.1,36.9,53.1,32.3z"/>
		<path d="M90.5,43.4c-1.4,2.1-4.1,4.3-8.1,4.4c-4,0.1-6-3.5-4.6-7.4l3.9-11c0.5-1.4-0.1-2.8-1.7-2.8c-1.9,0-4.1,1.5-4.8,3.8
			l-3.6,11.2l1.1,3.2c0.2,0.7-0.1,1.2-0.9,1.2h-8.9c-0.8,0-1.1-0.5-0.9-1.2l5.9-17.5l-2.3-4.4c-0.4-0.8-0.1-1.7,0.9-1.8
			c2.1-0.2,6-1,8.5-1.7c0.7-0.2,1.2,0.3,1,0.9L74.6,24c-0.2,0.6,0.1,1,0.4,1c0.2,0,0.4-0.1,0.6-0.3c2.7-3.5,5.5-5.7,9.4-5.7
			c5,0,7.1,5,5.3,9.9l-3.5,9.7c-0.7,1.9,0,3,2,3c0.4,0,0.7-0.1,1.2-0.1c0.4,0,0.8,0.2,0.9,0.6S90.8,43,90.5,43.4z"/>
		<path d="M122.7,32.5c-0.7,0.2-1.3-0.1-1.5-1.1c-0.9-4.3-3.6-8.1-5.7-8.6c-0.6-0.1-1-0.1-1.3,0.2c-0.3,0.3-0.1,0.7,0.2,1.1
			c1.8,1.5,3.3,3.8,2.9,6.9c-0.6,6.4-6.5,11.5-13.3,11.5c-1.4,0-2.8-0.2-4.1-0.6c0,0.2,0,0.4,0,0.7c-0.1,1.3,0.7,2,3.3,2.6l6.8,1.6
			c5.7,1.3,8.2,3.5,8.2,7.6c-0.1,5.7-4.5,9.1-15.4,9.1c-10.5,0-15-3.2-15-8.1c0-3.9,2.7-5.5,6.5-6.6c-0.7-0.9-1.1-1.9-1.1-2.9
			c0-2.1,1.3-4,4-5.1c-0.3-0.2-0.6-0.4-0.9-0.7C94.2,38.4,94,36,96,34.3l1.1-0.9c-1.4-1-2.2-2.8-2-5.3c0.3-3.3,2.1-5.9,5.6-7.8
			c2.5-1.3,5.9-1.9,11.9-1.9c7.7,0,12.9,2.6,13.6,6.9C126.9,28.7,124.9,31.9,122.7,32.5z M98.8,51.5c-1-0.3-1.9-0.7-2.7-1.2
			c-0.3,1-0.5,1.9-0.5,2.8c0,4,4.1,5.4,9,5.4c4.4,0,5.6-0.8,5.6-2.5c0-1.1-0.5-1.5-2.8-2.2L98.8,51.5z M110,31.8
			c0-3.4-2.2-6.1-4.4-6.1c-1.2,0-2.2,0.8-2.2,2.2c0,1.3,0.5,2.7,1.2,4c1,1.8-1.2,2.5-4,2.5l0,0c1,1.7,2.4,2.5,4.2,2.5
			C108.1,37,110,35.2,110,31.8z"/>
		<path d="M162.6,18.6l8-4.3c-0.7-3.5-4-6.1-8.2-6.1c-9.4,0-15.7,10.9-14.1,21.6c1,6.7,5.4,9.9,11,9.9c3.3,0,6-0.7,9.3-2.7
			c0.9-0.5,2.1,0.4,1.5,1.4c-3.1,5.2-8.5,9.5-15.7,9.5c-8.5,0-15.6-4.7-16.2-15.9C137.4,17.8,148,3.7,162,3.7
			c9.5,0,13.5,6,13.9,11.5c0.4,5-2.4,9.8-7.6,9.6c-3-0.1-5.4-1.7-6.4-4.5C161.6,19.8,161.9,19,162.6,18.6z"/>
		<path d="M182.7,36.2c-0.8,2.5,0.3,3.4,2.6,3.4c1,0,1.8-0.2,2.3-0.2c0.7,0,1,0.5,1.1,1c0.1,0.4-0.1,0.7-0.5,1.2
			c-2.4,3.3-5.3,5.2-8.6,5.2c-5.3,0-7.3-4.7-5.8-9.5l8.7-26.9l-1.6-2.6c-0.3-0.6,0-1.4,0.8-1.4c2.8,0,7.1-1.1,10.3-2.5
			c0.5-0.2,1.1,0.3,0.9,0.8L182.7,36.2z"/>
		<path d="M214.4,37c-0.7,1.8,0.2,3,1.7,3c0.7,0,1.3-0.2,1.7-0.2c0.6,0,0.9,0.3,0.9,0.7c0,0.3-0.1,0.7-0.3,1.1
			c-2.2,3.4-5.4,5.2-8.7,5.2c-2.7,0-4.3-1.4-4.4-3.6c0-0.6,0-1.1-0.4-1.1s-0.6,0.4-0.9,0.9c-1.6,2.3-4.2,3.7-6.9,3.7
			c-5.3,0-7.2-5-5.3-9.9l4.2-11.4l-1.4-2.6c-0.3-0.6,0-1.3,0.8-1.4c2.8-0.1,7.1-1.1,9.7-2.2c0.8-0.3,1.3,0.3,1.1,0.9L200.3,36
			c-0.6,1.6,0,3.3,2,3.2c2.1-0.1,3.9-1.5,4.7-3.8l3.5-9.9l-1.2-2.5c-0.3-0.5,0-1.1,0.7-1.2c2.4-0.3,7.1-1.3,9.6-2.3
			c0.8-0.3,1.3,0.3,1.1,0.9L214.4,37z"/>
		<path d="M250,30.1c0,8.9-6.1,17.1-14.7,17c-4-0.1-7.3-2-8.8-4.6c-0.5-0.9-1.1-1-1.6-0.4l-3.3,3.9c-0.3,0.3-0.7,0.4-1,0.4
			c-0.9,0-1.6-0.8-1.3-1.7l11.6-34.5l-2.3-3.5c-0.4-0.6-0.1-1.3,0.6-1.3c2.9,0.2,7.6-0.9,11.3-2.4c0.8-0.3,1.3,0.2,1.1,0.8l-6,15.2
			c-0.4,1,0.5,1.1,1,0.7c0.8-0.7,1.9-0.9,3.2-1C246.1,18.4,250,23.5,250,30.1z M242,30.7c-0.4-4.4-2.2-6-4.3-6
			c-2.9,0-3.7,2.3-3.2,4.8c0.3,1.2,0.7,2.3,1.3,3.2c0.6,0.8,1.3,1.4,1.4,2.2c0.1,0.6-0.5,1.3-1.5,1.3c-2.2,0-4.3-1.1-5.7-2.9
			c-0.1,1,0,2,0.1,2.9c0.4,3,2.3,5,5.3,5C239.9,41.1,242.6,37,242,30.7z"/>
	</g>
</g>
</svg>
